<svg width="77" height="20" viewBox="0 0 77 20" fill="none" xmlns="http://www.w3.org/2000/svg">
<path d="M72.9611 0.796467L53.2611 8.39313C51.9167 8.93313 51.9244 9.68313 53.0144 10.0176L58.0722 11.5954L69.7744 4.21202C70.3278 3.87536 70.8333 4.05647 70.4178 4.42536L60.9367 12.982H60.9344L60.9367 12.9831L60.5878 18.1965C61.0989 18.1965 61.3244 17.962 61.6111 17.6854L64.0678 15.2965L69.1778 19.0709C70.12 19.5898 70.7967 19.3231 71.0311 18.1987L74.3856 2.3898C74.7289 1.01313 73.86 0.3898 72.9611 0.796467Z" fill="#656566"/>
<g clip-path="url(#clip0_551_4830)">
<path fill-rule="evenodd" clip-rule="evenodd" d="M29.3125 2.435C29.52 1.7525 29.3125 1.25 28.3188 1.25H25.0375C24.2025 1.25 23.8175 1.68375 23.6087 2.1625C23.6087 2.1625 21.94 6.1575 19.5763 8.7525C18.8113 9.505 18.4638 9.74375 18.0462 9.74375C17.8375 9.74375 17.5238 9.505 17.5238 8.82125V2.435C17.5238 1.615 17.2938 1.25 16.5988 1.25H11.4388C10.9175 1.25 10.6038 1.63 10.6038 1.99125C10.6038 2.7675 11.7863 2.9475 11.9075 5.1325V9.88C11.9075 10.9213 11.7162 11.11 11.2987 11.11C10.1862 11.11 7.48 7.09625 5.87375 2.50375C5.5625 1.61 5.2475 1.25 4.40875 1.25H1.125C0.1875 1.25 0 1.68375 0 2.1625C0 3.015 1.1125 7.25 5.18125 12.8513C7.89375 16.6763 11.7125 18.75 15.1912 18.75C17.2775 18.75 17.535 18.29 17.535 17.4963V14.605C17.535 13.6838 17.7325 13.5 18.3937 13.5C18.8813 13.5 19.715 13.74 21.6625 15.5838C23.8875 17.77 24.2538 18.75 25.5063 18.75H28.7875C29.725 18.75 30.195 18.29 29.925 17.38C29.6275 16.475 28.565 15.1613 27.1562 13.6025C26.3913 12.715 25.2437 11.7588 24.895 11.28C24.4088 10.6663 24.5475 10.3925 24.895 9.84625C24.895 9.84625 28.895 4.31375 29.3112 2.435H29.3125Z" fill="#656566"/>
</g>
<defs>
<clipPath id="clip0_551_4830">
<rect width="30" height="18" fill="white" transform="translate(0 1)"/>
</clipPath>
</defs>
</svg>
